# xmcd
#
# Track frame offsets: 
#        150
#        16608
#        35833
#        59563
#        79690
#        93525
#        107908
#        138225
#        160113
#
# Disc length: 2483 seconds
#
# Revision: 2
# Processed by: cddbd v1.5.2PL0 Copyright (c) Steve Scherf et al.
# Submitted via: ExactAudioCopyFreeDBPlugin 1.0
#
DISCID=6e09b109
DTITLE=John Campbell - A Man And His Blues
DYEAR=1988
DGENRE=Blues
TTITLE0=Going to Dallas
TTITLE1=Bad Night Blues
TTITLE2=Judgement Day
TTITLE3=Bluebird
TTITLE4=Deep River Rag
TTITLE5=Texas Country Boy
TTITLE6=Sittin' Here Thinking
TTITLE7=Sunnyland Train
TTITLE8=White Lightnin'
EXTD=
EXTT0=
EXTT1=
EXTT2=
EXTT3=
EXTT4=
EXTT5=
EXTT6=
EXTT7=
EXTT8=
PLAYORDER=
